PathFileType	4	(X/Y/Z)	C:\Users\italobelli\Desktop\GitHub\PTbot_officialCBL\Personal_Results\ABD23_noisy1.trc
DataRate	CameraRate	NumFrames	NumMarkers	Units	OrigDataRate	OrigDataStartFrame	OrigNumFrames
105.444444	105.444444	25	9	m	105.444444	238	950
Frame#	Time		gu		centelbow		EpL		centpxt8		centijc7		ij		ts		aa		ai
			X1	Y1	Z1	X2	Y2	Z2	X3	Y3	Z3	X4	Y4	Z4	X5	Y5	Z5	X6	Y6	Z6	X7	Y7	Z7	X8	Y8	Z8	X9	Y9	Z9

238	2.2476	-0.094186	0.048991	0.13481	-0.10445	0.038539	0.38401	-0.11984	0.066309	0.3806	-0.046816	-0.15316	-0.008669	-0.046816	0.031938	-0.008669	0	0	0	-0.12585	0.0039239	0.027635	-0.12911	0.064432	0.1302	-0.1289	-0.091496	0.089395
239	2.2571	-0.094119	0.049398	0.1344	-0.10432	0.042278	0.38364	-0.11971	0.07	0.37982	-0.046816	-0.15316	-0.008669	-0.046816	0.031938	-0.008669	0	0	0	-0.12598	0.0037383	0.027697	-0.12918	0.064743	0.12997	-0.12906	-0.091368	0.089907
240	2.2666	-0.094052	0.049799	0.13399	-0.1042	0.04601	0.38323	-0.11957	0.073679	0.379	-0.046816	-0.15316	-0.008669	-0.046816	0.031938	-0.008669	0	0	0	-0.1261	0.0035529	0.02776	-0.12926	0.065053	0.12973	-0.12923	-0.091237	0.09042
241	2.2761	-0.093987	0.050196	0.13357	-0.10406	0.04973	0.38279	-0.11943	0.077345	0.37815	-0.046816	-0.15316	-0.008669	-0.046816	0.031938	-0.008669	0	0	0	-0.12623	0.0033674	0.027825	-0.12933	0.065362	0.12949	-0.12939	-0.091103	0.090933
242	2.2856	-0.093922	0.050587	0.13315	-0.10393	0.053438	0.38231	-0.1193	0.080994	0.37726	-0.046816	-0.15316	-0.008669	-0.046816	0.031938	-0.008669	0	0	0	-0.12636	0.0031819	0.027891	-0.12941	0.06567	0.12926	-0.12955	-0.090965	0.091448
243	2.295	-0.093859	0.050973	0.13273	-0.1038	0.057131	0.3818	-0.11915	0.084626	0.37634	-0.046816	-0.15316	-0.008669	-0.046816	0.031938	-0.008669	0	0	0	-0.12649	0.0029962	0.027958	-0.12949	0.065977	0.12902	-0.12971	-0.090825	0.091964
244	2.3045	-0.093797	0.051353	0.13231	-0.10366	0.060806	0.38126	-0.11901	0.088236	0.37539	-0.046816	-0.15316	-0.008669	-0.046816	0.031938	-0.008669	0	0	0	-0.12662	0.0028103	0.028026	-0.12956	0.066282	0.12878	-0.12988	-0.090681	0.092481
245	2.314	-0.093737	0.051727	0.13189	-0.10351	0.064461	0.38068	-0.11886	0.091824	0.37442	-0.046816	-0.15316	-0.008669	-0.046816	0.031938	-0.008669	0	0	0	-0.12675	0.002624	0.028096	-0.12964	0.066586	0.12854	-0.13004	-0.090535	0.093
246	2.3235	-0.093679	0.052095	0.13147	-0.10337	0.068093	0.38007	-0.11871	0.095387	0.37342	-0.046816	-0.15316	-0.008669	-0.046816	0.031938	-0.008669	0	0	0	-0.12688	0.0024374	0.028168	-0.12972	0.066889	0.1283	-0.1302	-0.090387	0.093519
247	2.333	-0.093623	0.052456	0.13106	-0.10322	0.071701	0.37942	-0.11856	0.098921	0.37239	-0.046816	-0.15316	-0.008669	-0.046816	0.031938	-0.008669	0	0	0	-0.12701	0.0022503	0.028241	-0.12979	0.06719	0.12805	-0.13036	-0.090236	0.094041
248	2.3425	-0.093569	0.05281	0.13064	-0.10306	0.075281	0.37875	-0.1184	0.10243	0.37133	-0.046816	-0.15316	-0.008669	-0.046816	0.031938	-0.008669	0	0	0	-0.12714	0.0020626	0.028315	-0.12987	0.06749	0.12781	-0.13052	-0.090083	0.094564
249	2.3519	-0.093519	0.053158	0.13022	-0.1029	0.078832	0.37805	-0.11824	0.1059	0.37026	-0.046816	-0.15316	-0.008669	-0.046816	0.031938	-0.008669	0	0	0	-0.12726	0.0018743	0.028391	-0.12995	0.067788	0.12757	-0.13068	-0.089928	0.095089
250	2.3614	-0.093471	0.053498	0.12981	-0.10273	0.082352	0.37731	-0.11807	0.10934	0.36916	-0.046816	-0.15316	-0.008669	-0.046816	0.031938	-0.008669	0	0	0	-0.12739	0.0016853	0.028469	-0.13003	0.068085	0.12733	-0.13084	-0.089771	0.095617
251	2.3709	-0.093427	0.053831	0.1294	-0.10256	0.085836	0.37655	-0.11789	0.11274	0.36804	-0.046816	-0.15316	-0.008669	-0.046816	0.031938	-0.008669	0	0	0	-0.12752	0.0014955	0.028549	-0.13011	0.06838	0.12709	-0.13099	-0.089612	0.096146
252	2.3804	-0.093386	0.054156	0.12899	-0.10238	0.089285	0.37576	-0.11771	0.1161	0.36691	-0.046816	-0.15316	-0.008669	-0.046816	0.031938	-0.008669	0	0	0	-0.12765	0.0013049	0.02863	-0.1302	0.068673	0.12684	-0.13115	-0.089452	0.096678
253	2.3899	-0.093349	0.054473	0.12859	-0.10219	0.092694	0.37494	-0.11753	0.11942	0.36575	-0.046816	-0.15316	-0.008669	-0.046816	0.031938	-0.008669	0	0	0	-0.12777	0.0011132	0.028713	-0.13028	0.068964	0.1266	-0.1313	-0.08929	0.097212
254	2.3994	-0.093315	0.054782	0.12819	-0.10199	0.096061	0.3741	-0.11733	0.1227	0.36459	-0.046816	-0.15316	-0.008669	-0.046816	0.031938	-0.008669	0	0	0	-0.1279	0.00092057	0.028798	-0.13036	0.069253	0.12636	-0.13145	-0.089127	0.097748
255	2.4089	-0.093286	0.055083	0.1278	-0.10179	0.099385	0.37323	-0.11713	0.12593	0.3634	-0.046816	-0.15316	-0.008669	-0.046816	0.031938	-0.008669	0	0	0	-0.12802	0.00072679	0.028884	-0.13045	0.06954	0.12612	-0.1316	-0.088963	0.098287
256	2.4183	-0.093262	0.055375	0.12741	-0.10158	0.10266	0.37233	-0.11692	0.12911	0.3622	-0.046816	-0.15316	-0.008669	-0.046816	0.031938	-0.008669	0	0	0	-0.12815	0.00053183	0.028973	-0.13053	0.069826	0.12588	-0.13175	-0.088799	0.098829
257	2.4278	-0.093242	0.055658	0.12703	-0.10135	0.10589	0.37141	-0.11671	0.13225	0.361	-0.046816	-0.15316	-0.008669	-0.046816	0.031938	-0.008669	0	0	0	-0.12827	0.00033559	0.029063	-0.13062	0.070109	0.12563	-0.13189	-0.088633	0.099374
258	2.4373	-0.093227	0.055932	0.12665	-0.10112	0.10907	0.37047	-0.11648	0.13533	0.35978	-0.046816	-0.15316	-0.008669	-0.046816	0.031938	-0.008669	0	0	0	-0.12839	0.00013801	0.029156	-0.1307	0.07039	0.12539	-0.13203	-0.088467	0.099922
259	2.4468	-0.093217	0.056197	0.12628	-0.10088	0.1122	0.3695	-0.11625	0.13835	0.35855	-0.046816	-0.15316	-0.008669	-0.046816	0.031938	-0.008669	0	0	0	-0.12851	-6.1011e-05	0.02925	-0.13079	0.070668	0.12515	-0.13217	-0.088301	0.10047
260	2.4563	-0.093213	0.056452	0.12591	-0.10063	0.11526	0.36852	-0.11601	0.14131	0.35731	-0.046816	-0.15316	-0.008669	-0.046816	0.031938	-0.008669	0	0	0	-0.12863	-0.00026154	0.029347	-0.13088	0.070945	0.12491	-0.13231	-0.088134	0.10103
261	2.4658	-0.093215	0.056698	0.12556	-0.10037	0.11828	0.36751	-0.11576	0.14422	0.35607	-0.046816	-0.15316	-0.008669	-0.046816	0.031938	-0.008669	0	0	0	-0.12875	-0.00046366	0.029445	-0.13097	0.071219	0.12467	-0.13244	-0.087968	0.10159
262	2.4752	-0.093222	0.056933	0.12521	-0.10009	0.12123	0.36648	-0.1155	0.14706	0.35482	-0.046816	-0.15316	-0.008669	-0.046816	0.031938	-0.008669	0	0	0	-0.12887	-0.00066744	0.029546	-0.13106	0.07149	0.12443	-0.13257	-0.087801	0.10215
